<?xml version="1.0" standalone="no"?>
<!DOCTYPE svg PUBLIC "-//W3C//DTD SVG 20010904//EN"
 "http://www.w3.org/TR/2001/REC-SVG-20010904/DTD/svg10.dtd">
<svg version="1.0" xmlns="http://www.w3.org/2000/svg"
 width="64.000000pt" height="64.000000pt" viewBox="0 0 64.000000 64.000000"
 preserveAspectRatio="xMidYMid meet">

<g transform="translate(0.000000,64.000000) scale(0.100000,-0.100000)"
fill="#000000" stroke="none">
<path d="M475 630 c-4 -6 -3 -16 3 -22 13 -13 23 4 13 21 -7 10 -10 10 -16 1z"/>
<path d="M230 591 c-70 -22 -160 -101 -173 -154 -7 -24 -11 -29 45 51 39 57
116 94 192 95 73 0 119 -18 177 -70 31 -28 39 -32 30 -15 -15 28 -92 79 -141
92 -40 11 -94 12 -130 1z"/>
<path d="M556 531 c-4 -5 -2 -12 3 -15 5 -4 12 -2 15 3 4 5 2 12 -3 15 -5 4
-12 2 -15 -3z"/>
<path d="M163 463 c-7 -2 -13 -16 -13 -29 0 -22 -4 -24 -44 -24 -65 0 -98 -15
-94 -43 3 -20 10 -23 68 -27 55 -4 65 -8 68 -25 7 -41 28 -45 208 -45 95 0
184 4 198 10 25 9 26 13 26 93 l0 84 -46 7 c-54 7 -353 7 -371 -1z m59 -93 l3
-81 -30 3 -30 3 -3 78 -3 77 30 0 29 0 4 -80z m346 3 l-3 -78 -162 -3 -163 -2
0 80 0 80 165 0 166 0 -3 -77z m-418 -3 c0 -18 -7 -20 -59 -20 -33 0 -63 5
-66 10 -13 21 8 30 66 30 52 0 59 -2 59 -20z"/>
<path d="M272 373 c2 -57 2 -57 5 -10 l4 47 125 0 124 0 0 -46 c0 -27 4 -43
10 -39 6 3 10 21 10 40 0 66 1 65 -146 65 l-134 0 2 -57z"/>
<path d="M41 300 c-1 -29 31 -104 49 -115 7 -4 -1 -13 -22 -23 -18 -10 -38
-28 -45 -42 -15 -30 -18 -124 -3 -115 5 3 10 30 10 60 0 46 4 56 26 74 34 27
38 26 78 -4 94 -72 227 -72 320 -1 30 22 38 24 59 15 31 -14 47 -48 47 -99 0
-32 -4 -39 -22 -43 -13 -2 -3 -4 22 -4 25 -1 37 1 28 4 -14 3 -18 15 -18 55 0
45 -4 54 -35 84 l-35 33 21 36 c12 20 19 38 16 41 -3 3 -13 -11 -22 -31 -25
-51 -90 -103 -155 -122 -129 -38 -254 33 -301 170 -12 36 -18 44 -18 27z"/>
<path d="M300 207 c0 -24 24 -37 67 -37 31 0 45 5 52 19 15 26 5 31 -61 31
-41 0 -58 -4 -58 -13z m108 -9 c-6 -17 -90 -17 -95 0 -3 8 10 12 47 12 37 0
50 -4 48 -12z"/>
<path d="M132 30 c0 -19 2 -27 5 -17 2 9 2 25 0 35 -3 9 -5 1 -5 -18z"/>
<path d="M440 24 c0 -14 4 -23 10 -19 6 3 10 15 10 26 0 10 -4 19 -10 19 -5 0
-10 -12 -10 -26z"/>
</g>
</svg>
