<?xml version="1.0" standalone="no"?>
<!DOCTYPE svg PUBLIC "-//W3C//DTD SVG 20010904//EN"
 "http://www.w3.org/TR/2001/REC-SVG-20010904/DTD/svg10.dtd">
<svg version="1.0" xmlns="http://www.w3.org/2000/svg"
 width="80.000000pt" height="80.000000pt" viewBox="0 0 80.000000 80.000000"
 preserveAspectRatio="xMidYMid meet">
<metadata>
Created by potrace 1.16, written by Peter Selinger 2001-2019
</metadata>
<g transform="translate(0.000000,80.000000) scale(0.100000,-0.100000)"
fill="#000000" stroke="none">
<path d="M393 709 c-48 -24 -89 -68 -110 -116 -20 -48 -17 -151 6 -195 17 -35
17 -38 1 -53 -9 -8 -23 -15 -31 -15 -7 0 -53 -39 -101 -87 -93 -93 -107 -123
-70 -156 36 -33 62 -21 154 70 49 48 88 94 88 102 0 8 7 22 15 31 15 16 18 16
53 -2 29 -15 53 -19 113 -16 89 4 141 31 186 100 25 37 28 50 28 128 0 78 -3
91 -28 128 -45 69 -97 96 -186 100 -62 2 -84 -1 -118 -19z m224 -45 c124 -100
108 -275 -31 -346 -53 -27 -148 -22 -194 11 -103 73 -125 208 -47 298 50 59
87 74 167 71 57 -3 72 -8 105 -34z"/>
</g>
</svg>
